<svg width="202" height="31" viewBox="0 0 202 31" fill="none" xmlns="http://www.w3.org/2000/svg">
<path fill-rule="evenodd" clip-rule="evenodd" d="M27.8333 15C27.8333 22.0877 22.0877 27.8333 15 27.8333C7.91234 27.8333 2.16666 22.0877 2.16666 15C2.16666 7.9123 7.91234 2.16666 15 2.16666C22.0877 2.16666 27.8333 7.9123 27.8333 15ZM30 15C30 23.2843 23.2843 30 15 30C6.71573 30 0 23.2843 0 15C0 6.71573 6.71573 0 15 0C23.2843 0 30 6.71573 30 15ZM23.2759 8.2759C23.2759 9.1329 22.5812 9.8276 21.7242 9.8276C20.8672 9.8276 20.1725 9.1329 20.1725 8.2759C20.1725 7.4189 20.8672 6.72418 21.7242 6.72418C22.5812 6.72418 23.2759 7.4189 23.2759 8.2759ZM10.4879 16.209C11.1556 18.7009 13.717 20.1797 16.2089 19.512C18.7008 18.8443 20.1796 16.2829 19.5119 13.791C18.8442 11.2991 16.2828 9.8203 13.7909 10.488C11.299 11.1557 9.82015 13.7171 10.4879 16.209ZM8.39503 16.7698C9.37244 20.4175 13.1219 22.5823 16.7696 21.6049C20.4174 20.6274 22.5821 16.878 21.6047 13.2302C20.6273 9.5825 16.8779 7.4177 13.2301 8.3952C9.58236 9.3726 7.41762 13.122 8.39503 16.7698Z" fill="url(#paint0_linear_5_7)"/>
<path d="M45.2215 25.27C43.7545 25.27 42.454 25.0405 41.32 24.5815C40.186 24.1135 39.2995 23.4025 38.6605 22.4485C38.0305 21.4855 37.7245 20.266 37.7425 18.79H41.4145C41.4325 19.492 41.5855 20.086 41.8735 20.572C42.1705 21.049 42.607 21.409 43.183 21.652C43.768 21.895 44.4925 22.0165 45.3565 22.0165C46.1215 22.0165 46.747 21.9355 47.233 21.7735C47.719 21.6025 48.079 21.355 48.313 21.031C48.547 20.707 48.664 20.32 48.664 19.87C48.664 19.375 48.5155 18.961 48.2185 18.628C47.9215 18.286 47.4535 17.971 46.8145 17.683C46.1755 17.386 45.343 17.062 44.317 16.711C43.147 16.297 42.121 15.82 41.239 15.28C40.366 14.731 39.691 14.0695 39.214 13.2955C38.737 12.5125 38.4985 11.5765 38.4985 10.4875C38.4985 8.7145 39.0925 7.369 40.2805 6.451C41.4775 5.524 43.1065 5.0605 45.1675 5.0605C46.5805 5.0605 47.746 5.281 48.664 5.722C49.582 6.163 50.2795 6.8155 50.7565 7.6795C51.2425 8.5435 51.544 9.61 51.661 10.879H48.0295C47.9845 10.321 47.845 9.853 47.611 9.475C47.386 9.088 47.0665 8.8 46.6525 8.611C46.2475 8.413 45.739 8.314 45.127 8.314C44.191 8.314 43.471 8.485 42.967 8.827C42.463 9.169 42.211 9.691 42.211 10.393C42.211 10.852 42.31 11.257 42.508 11.608C42.706 11.95 43.0705 12.283 43.6015 12.607C44.1415 12.922 44.92 13.273 45.937 13.66C46.792 13.993 47.611 14.3125 48.394 14.6185C49.177 14.9245 49.87 15.2845 50.473 15.6985C51.085 16.1035 51.562 16.612 51.904 17.224C52.255 17.827 52.435 18.601 52.444 19.546C52.453 21.427 51.823 22.8535 50.554 23.8255C49.285 24.7885 47.5075 25.27 45.2215 25.27ZM59.8817 25.2025C58.4867 25.2025 57.2717 24.91 56.2367 24.325C55.2017 23.74 54.4007 22.8805 53.8337 21.7465C53.2667 20.6035 52.9832 19.204 52.9832 17.548C52.9832 15.982 53.2802 14.632 53.8742 13.498C54.4772 12.364 55.3052 11.4955 56.3582 10.8925C57.4112 10.2805 58.6037 9.9745 59.9357 9.9745C61.3757 9.9745 62.6087 10.2805 63.6347 10.8925C64.6697 11.4955 65.4617 12.364 66.0107 13.498C66.5597 14.632 66.8342 15.982 66.8342 17.548C66.8342 19.204 66.5282 20.6035 65.9162 21.7465C65.3042 22.8805 64.4717 23.74 63.4187 24.325C62.3747 24.91 61.1957 25.2025 59.8817 25.2025ZM59.9357 22.084C60.8537 22.084 61.6097 21.742 62.2037 21.058C62.8067 20.374 63.1082 19.204 63.1082 17.548C63.1082 16.009 62.8067 14.884 62.2037 14.173C61.6007 13.453 60.8267 13.093 59.8817 13.093C58.9637 13.093 58.2077 13.4485 57.6137 14.1595C57.0197 14.8705 56.7227 16 56.7227 17.548C56.7227 19.132 57.0287 20.284 57.6407 21.004C58.2527 21.724 59.0177 22.084 59.9357 22.084ZM74.5783 25.2565C73.0753 25.2565 71.8018 24.937 70.7578 24.298C69.7138 23.65 68.9218 22.75 68.3818 21.598C67.8508 20.437 67.5853 19.096 67.5853 17.575C67.5853 15.991 67.8598 14.632 68.4088 13.498C68.9668 12.364 69.7588 11.4955 70.7848 10.8925C71.8108 10.2895 73.0213 9.988 74.4163 9.988C75.7933 9.988 76.9408 10.231 77.8588 10.717C78.7768 11.203 79.4563 11.8645 79.8973 12.7015C80.3473 13.5385 80.5453 14.479 80.4913 15.523H76.9138C76.8958 15.118 76.8328 14.758 76.7248 14.443C76.6168 14.128 76.4593 13.867 76.2523 13.66C76.0453 13.444 75.7888 13.282 75.4828 13.174C75.1768 13.066 74.8213 13.012 74.4163 13.012C73.3273 13.003 72.5353 13.39 72.0403 14.173C71.5543 14.947 71.3113 16.0585 71.3113 17.5075C71.3113 19.1275 71.5948 20.311 72.1618 21.058C72.7378 21.796 73.5883 22.1785 74.7133 22.2055C75.0553 22.2145 75.4018 22.1425 75.7528 21.9895C76.1128 21.8275 76.4098 21.58 76.6438 21.247C76.8778 20.914 76.9858 20.4955 76.9678 19.9915H80.5318C80.5588 21.0535 80.3203 21.9805 79.8163 22.7725C79.3123 23.5645 78.6058 24.1765 77.6968 24.6085C76.7968 25.0405 75.7573 25.2565 74.5783 25.2565ZM81.7871 25V10.258H85.5131L85.4996 25H81.7871ZM83.6636 8.341C83.0156 8.341 82.4666 8.116 82.0166 7.666C81.5666 7.216 81.3416 6.64 81.3416 5.938C81.3416 5.236 81.5666 4.6645 82.0166 4.2235C82.4756 3.7735 83.0246 3.5485 83.6636 3.5485C84.3026 3.5485 84.8471 3.7735 85.2971 4.2235C85.7561 4.6645 85.9856 5.236 85.9856 5.938C85.9856 6.64 85.7561 7.216 85.2971 7.666C84.8471 8.116 84.3026 8.341 83.6636 8.341ZM91.6102 25.162C90.7462 25.162 89.9677 25 89.2747 24.676C88.5907 24.352 88.0507 23.884 87.6547 23.272C87.2677 22.66 87.0742 21.9355 87.0742 21.0985C87.0742 20.2165 87.2452 19.492 87.5872 18.925C87.9292 18.349 88.4062 17.8945 89.0182 17.5615C89.6302 17.2195 90.3367 16.9675 91.1377 16.8055C91.6957 16.6885 92.2717 16.594 92.8657 16.522C93.4687 16.441 94.0312 16.378 94.5532 16.333C95.0752 16.288 95.4982 16.252 95.8222 16.225V15.7255C95.8222 14.7625 95.6467 14.065 95.2957 13.633C94.9447 13.192 94.3417 12.9715 93.4867 12.9715C92.9377 12.9715 92.4742 13.0435 92.0962 13.1875C91.7272 13.3315 91.4482 13.5925 91.2592 13.9705C91.0702 14.3485 90.9757 14.893 90.9757 15.604H87.4927C87.3937 14.317 87.5872 13.2595 88.0732 12.4315C88.5682 11.6035 89.2927 10.9915 90.2467 10.5955C91.2097 10.1905 92.3392 9.988 93.6352 9.988C94.4002 9.988 95.1292 10.0735 95.8222 10.2445C96.5242 10.4065 97.1452 10.69 97.6852 11.095C98.2342 11.491 98.6662 12.0355 98.9812 12.7285C99.3052 13.4215 99.4672 14.299 99.4672 15.361V25H95.7952L95.8222 21.625C95.6602 22.615 95.2462 23.452 94.5802 24.136C93.9142 24.82 92.9242 25.162 91.6102 25.162ZM92.7442 22.5565C93.2032 22.5565 93.6487 22.4755 94.0807 22.3135C94.5217 22.1425 94.8997 21.9085 95.2147 21.6115C95.5387 21.3145 95.7412 20.9725 95.8222 20.5855V18.088C95.4622 18.142 95.0707 18.205 94.6477 18.277C94.2247 18.349 93.8557 18.421 93.5407 18.493C92.5867 18.691 91.9162 18.9655 91.5292 19.3165C91.1512 19.6585 90.9622 20.14 90.9622 20.761C90.9622 21.13 91.0342 21.4495 91.1782 21.7195C91.3312 21.9895 91.5427 22.1965 91.8127 22.3405C92.0917 22.4845 92.4022 22.5565 92.7442 22.5565ZM101.682 25V3.913H105.894V25H101.682ZM116.708 25.27C115.205 25.27 113.85 25.036 112.644 24.568C111.447 24.091 110.511 23.3575 109.836 22.3675C109.161 21.3775 108.851 20.113 108.905 18.574H113.09C113.108 19.222 113.243 19.7755 113.495 20.2345C113.747 20.6935 114.143 21.0445 114.683 21.2875C115.223 21.5215 115.925 21.6385 116.789 21.6385C117.491 21.6385 118.067 21.5665 118.517 21.4225C118.967 21.2785 119.295 21.067 119.502 20.788C119.718 20.5 119.826 20.149 119.826 19.735C119.826 19.276 119.682 18.898 119.394 18.601C119.106 18.295 118.652 18.0115 118.031 17.7505C117.419 17.4895 116.627 17.1925 115.655 16.8595C114.449 16.4275 113.391 15.9415 112.482 15.4015C111.582 14.8615 110.885 14.2 110.39 13.417C109.895 12.634 109.647 11.671 109.647 10.528C109.647 8.746 110.264 7.3915 111.497 6.4645C112.739 5.5285 114.422 5.0605 116.546 5.0605C117.995 5.0605 119.205 5.29 120.177 5.749C121.149 6.199 121.892 6.874 122.405 7.774C122.927 8.674 123.233 9.79 123.323 11.122H119.219C119.201 10.6 119.088 10.159 118.881 9.799C118.683 9.439 118.391 9.1645 118.004 8.9755C117.617 8.7865 117.135 8.692 116.559 8.692C115.686 8.692 115.02 8.836 114.561 9.124C114.102 9.403 113.873 9.8485 113.873 10.4605C113.873 10.9195 113.976 11.311 114.183 11.635C114.399 11.95 114.768 12.247 115.29 12.526C115.812 12.805 116.537 13.1155 117.464 13.4575C118.328 13.7725 119.156 14.083 119.948 14.389C120.749 14.686 121.464 15.0415 122.094 15.4555C122.724 15.8605 123.219 16.3735 123.579 16.9945C123.948 17.6155 124.133 18.4075 124.133 19.3705C124.142 21.3325 123.471 22.8085 122.121 23.7985C120.771 24.7795 118.967 25.27 116.708 25.27ZM133.593 25.1755C132.864 25.1755 132.225 25.0495 131.676 24.7975C131.136 24.5455 130.699 24.208 130.366 23.785C130.033 23.362 129.813 22.8985 129.705 22.3945H128.058L129.88 20.1265C129.97 20.4685 130.119 20.7655 130.326 21.0175C130.542 21.2605 130.816 21.4495 131.149 21.5845C131.482 21.7105 131.874 21.7735 132.324 21.7735C133.224 21.7735 133.917 21.427 134.403 20.734C134.898 20.041 135.145 18.9745 135.145 17.5345C135.145 16.1755 134.907 15.1585 134.43 14.4835C133.953 13.7995 133.26 13.4575 132.351 13.4575C131.91 13.4575 131.509 13.5205 131.149 13.6465C130.798 13.7635 130.51 13.912 130.285 14.092C130.06 14.272 129.925 14.461 129.88 14.659V13.5655C130.006 13.0255 130.173 12.535 130.38 12.094C130.596 11.653 130.866 11.2795 131.19 10.9735C131.514 10.6585 131.896 10.4155 132.337 10.2445C132.787 10.0735 133.305 9.988 133.89 9.988C135.033 9.988 136.009 10.2985 136.819 10.9195C137.629 11.5405 138.25 12.418 138.682 13.552C139.123 14.677 139.344 16.0045 139.344 17.5345C139.344 18.7495 139.204 19.8295 138.925 20.7745C138.646 21.7195 138.25 22.5205 137.737 23.1775C137.233 23.8255 136.63 24.3205 135.928 24.6625C135.226 25.0045 134.448 25.1755 133.593 25.1755ZM125.695 30.4405V10.2715H129.799L129.88 12.607V21.112L129.705 22.3945L129.88 25.0135V30.4405H125.695ZM146.9 25.2025C145.406 25.2025 144.132 24.9055 143.079 24.3115C142.026 23.7175 141.221 22.858 140.663 21.733C140.105 20.599 139.826 19.231 139.826 17.629C139.826 15.973 140.123 14.578 140.717 13.444C141.311 12.301 142.148 11.437 143.228 10.852C144.308 10.267 145.572 9.9745 147.021 9.9745C148.425 9.9745 149.604 10.24 150.558 10.771C151.521 11.302 152.25 12.085 152.745 13.12C153.24 14.155 153.488 15.4285 153.488 16.9405C153.488 17.1295 153.479 17.35 153.461 17.602C153.452 17.845 153.438 18.124 153.42 18.439H143.943C144.042 19.663 144.339 20.5585 144.834 21.1255C145.329 21.6835 146.022 21.9625 146.913 21.9625C147.651 21.9625 148.209 21.8005 148.587 21.4765C148.974 21.1525 149.204 20.725 149.276 20.194H153.299C153.218 21.211 152.907 22.0975 152.367 22.8535C151.836 23.6005 151.107 24.181 150.18 24.595C149.253 25 148.16 25.2025 146.9 25.2025ZM145.658 16.0765H149.451C149.415 15.1315 149.186 14.425 148.763 13.957C148.349 13.489 147.71 13.255 146.846 13.255C145.829 13.255 145.086 13.6195 144.618 14.3485C144.15 15.0685 143.912 16.0945 143.903 17.4265C143.975 16.9135 144.15 16.5625 144.429 16.3735C144.708 16.1755 145.118 16.0765 145.658 16.0765ZM161.069 25.2565C159.521 25.2565 158.225 24.937 157.181 24.298C156.146 23.65 155.363 22.75 154.832 21.598C154.31 20.437 154.049 19.0915 154.049 17.5615C154.049 15.9955 154.319 14.6455 154.859 13.5115C155.408 12.3775 156.2 11.509 157.235 10.906C158.279 10.294 159.534 9.988 161.001 9.988C162.441 9.988 163.634 10.2355 164.579 10.7305C165.524 11.2255 166.221 11.905 166.671 12.769C167.121 13.624 167.319 14.596 167.265 15.685H163.202C163.184 15.271 163.125 14.9155 163.026 14.6185C162.927 14.3125 162.783 14.065 162.594 13.876C162.414 13.678 162.189 13.534 161.919 13.444C161.658 13.345 161.352 13.2955 161.001 13.2955C160.056 13.2955 159.354 13.642 158.895 14.335C158.436 15.019 158.207 16.072 158.207 17.494C158.207 19.042 158.463 20.1535 158.976 20.8285C159.489 21.4945 160.214 21.85 161.15 21.895C161.519 21.913 161.87 21.8545 162.203 21.7195C162.536 21.5845 162.806 21.3595 163.013 21.0445C163.22 20.7205 163.319 20.2975 163.31 19.7755H167.319C167.346 20.8645 167.117 21.823 166.631 22.651C166.145 23.47 165.429 24.109 164.484 24.568C163.548 25.027 162.41 25.2565 161.069 25.2565ZM173.129 25.1755C171.914 25.1755 170.964 24.8695 170.28 24.2575C169.605 23.6365 169.268 22.678 169.268 21.382L169.227 14.794C169.227 14.452 169.322 14.173 169.511 13.957C169.709 13.741 169.983 13.6015 170.334 13.5385L169.227 10.852V10.4065L169.997 6.046H173.412V20.086C173.412 20.716 173.489 21.1525 173.642 21.3955C173.804 21.6385 174.11 21.76 174.56 21.76C175.01 21.76 175.383 21.751 175.68 21.733C175.986 21.715 176.274 21.6835 176.544 21.6385V24.946C176.22 25.063 175.734 25.1305 175.086 25.1485C174.447 25.1665 173.795 25.1755 173.129 25.1755ZM167.661 13.5385V10.258H176.45V13.5385H167.661ZM177.446 25V10.258H181.199L181.55 16.036L181.307 15.1585C181.388 14.3845 181.536 13.6825 181.752 13.0525C181.968 12.4135 182.247 11.8645 182.589 11.4055C182.931 10.9465 183.341 10.591 183.818 10.339C184.304 10.087 184.857 9.961 185.478 9.961C185.658 9.961 185.838 9.97 186.018 9.988C186.207 10.006 186.374 10.0375 186.518 10.0825V14.443C186.212 14.362 185.915 14.308 185.627 14.281C185.348 14.245 185.069 14.227 184.79 14.227C184.295 14.227 183.845 14.272 183.44 14.362C183.044 14.452 182.697 14.5915 182.4 14.7805C182.103 14.9605 181.856 15.1945 181.658 15.4825V25H177.446ZM191.106 25.162C190.269 25.162 189.508 25.0045 188.824 24.6895C188.149 24.3745 187.614 23.911 187.218 23.299C186.822 22.687 186.624 21.9355 186.624 21.0445C186.624 20.1535 186.804 19.42 187.164 18.844C187.533 18.268 188.032 17.818 188.662 17.494C189.292 17.161 190.003 16.9135 190.795 16.7515C191.326 16.6435 191.871 16.5535 192.429 16.4815C192.996 16.4095 193.527 16.351 194.022 16.306C194.526 16.261 194.953 16.225 195.304 16.198V15.793C195.304 14.857 195.147 14.2 194.832 13.822C194.526 13.444 193.986 13.255 193.212 13.255C192.717 13.255 192.298 13.3225 191.956 13.4575C191.623 13.5925 191.371 13.8355 191.2 14.1865C191.038 14.5375 190.962 15.037 190.971 15.685H187.002C186.894 14.389 187.096 13.3225 187.609 12.4855C188.122 11.6395 188.874 11.014 189.864 10.609C190.854 10.195 192.015 9.988 193.347 9.988C194.121 9.988 194.872 10.0735 195.601 10.2445C196.33 10.4065 196.983 10.69 197.559 11.095C198.135 11.491 198.589 12.0355 198.922 12.7285C199.264 13.4215 199.435 14.299 199.435 15.361V25H195.277L195.304 21.5575C195.142 22.5475 194.737 23.398 194.089 24.109C193.45 24.811 192.456 25.162 191.106 25.162ZM192.496 22.381C192.937 22.381 193.356 22.3 193.752 22.138C194.157 21.967 194.499 21.7375 194.778 21.4495C195.057 21.1525 195.232 20.824 195.304 20.464V18.142C194.944 18.196 194.58 18.2545 194.211 18.3175C193.842 18.3805 193.518 18.448 193.239 18.52C192.339 18.718 191.722 18.9925 191.389 19.3435C191.056 19.6855 190.89 20.1355 190.89 20.6935C190.89 21.0445 190.948 21.346 191.065 21.598C191.191 21.85 191.376 22.0435 191.619 22.1785C191.862 22.3135 192.154 22.381 192.496 22.381Z" fill="white"/>
<defs>
<linearGradient id="paint0_linear_5_7" x1="15" y1="0" x2="15" y2="30" gradientUnits="userSpaceOnUse">
<stop stop-color="#877EFF"/>
<stop offset="0.461458" stop-color="#685DFF"/>
<stop offset="1" stop-color="#3121FF"/>
</linearGradient>
</defs>
</svg>
